<svg width="176" height="48" viewBox="0 0 176 48" fill="none" xmlns="http://www.w3.org/2000/svg">
<path d="M22.5069 21.36C22.2789 20.94 21.9489 20.622 21.5169 20.406C21.0969 20.178 20.5989 20.064 20.0229 20.064C19.0269 20.064 18.2289 20.394 17.6289 21.054C17.0289 21.702 16.7289 22.572 16.7289 23.664C16.7289 24.828 17.0409 25.74 17.6649 26.4C18.3009 27.048 19.1709 27.372 20.2749 27.372C21.0309 27.372 21.6669 27.18 22.1829 26.796C22.7109 26.412 23.0949 25.86 23.3349 25.14H19.4289V22.872H26.1249V25.734C25.8969 26.502 25.5069 27.216 24.9549 27.876C24.4149 28.536 23.7249 29.07 22.8849 29.478C22.0449 29.886 21.0969 30.09 20.0409 30.09C18.7929 30.09 17.6769 29.82 16.6929 29.28C15.7209 28.728 14.9589 27.966 14.4069 26.994C13.8669 26.022 13.5969 24.912 13.5969 23.664C13.5969 22.416 13.8669 21.306 14.4069 20.334C14.9589 19.35 15.7209 18.588 16.6929 18.048C17.6649 17.496 18.7749 17.22 20.0229 17.22C21.5349 17.22 22.8069 17.586 23.8389 18.318C24.8829 19.05 25.5729 20.064 25.9089 21.36H22.5069ZM29.3779 18.912C28.8379 18.912 28.3939 18.756 28.0459 18.444C27.7099 18.12 27.5419 17.724 27.5419 17.256C27.5419 16.776 27.7099 16.38 28.0459 16.068C28.3939 15.744 28.8379 15.582 29.3779 15.582C29.9059 15.582 30.3379 15.744 30.6739 16.068C31.0219 16.38 31.1959 16.776 31.1959 17.256C31.1959 17.724 31.0219 18.12 30.6739 18.444C30.3379 18.756 29.9059 18.912 29.3779 18.912ZM30.9079 19.956V30H27.8299V19.956H30.9079ZM37.6565 27.12L39.8345 19.956H43.1105L39.5465 30H35.7485L32.1845 19.956H35.4785L37.6565 27.12ZM53.874 24.816C53.874 25.104 53.856 25.404 53.82 25.716H46.854C46.902 26.34 47.1 26.82 47.448 27.156C47.808 27.48 48.246 27.642 48.762 27.642C49.53 27.642 50.064 27.318 50.364 26.67H53.64C53.472 27.33 53.166 27.924 52.722 28.452C52.29 28.98 51.744 29.394 51.084 29.694C50.424 29.994 49.686 30.144 48.87 30.144C47.886 30.144 47.01 29.934 46.242 29.514C45.474 29.094 44.874 28.494 44.442 27.714C44.01 26.934 43.794 26.022 43.794 24.978C43.794 23.934 44.004 23.022 44.424 22.242C44.856 21.462 45.456 20.862 46.224 20.442C46.992 20.022 47.874 19.812 48.87 19.812C49.842 19.812 50.706 20.016 51.462 20.424C52.218 20.832 52.806 21.414 53.226 22.17C53.658 22.926 53.874 23.808 53.874 24.816ZM50.724 24.006C50.724 23.478 50.544 23.058 50.184 22.746C49.824 22.434 49.374 22.278 48.834 22.278C48.318 22.278 47.88 22.428 47.52 22.728C47.172 23.028 46.956 23.454 46.872 24.006H50.724ZM69.8078 17.364V30H66.7298V22.422L63.9038 30H61.4198L58.5758 22.404V30H55.4978V17.364H59.1338L62.6798 26.112L66.1898 17.364H69.8078ZM81.4893 24.816C81.4893 25.104 81.4713 25.404 81.4353 25.716H74.4693C74.5173 26.34 74.7153 26.82 75.0633 27.156C75.4233 27.48 75.8613 27.642 76.3773 27.642C77.1453 27.642 77.6793 27.318 77.9793 26.67H81.2553C81.0873 27.33 80.7813 27.924 80.3373 28.452C79.9053 28.98 79.3593 29.394 78.6993 29.694C78.0393 29.994 77.3013 30.144 76.4853 30.144C75.5013 30.144 74.6253 29.934 73.8573 29.514C73.0893 29.094 72.4893 28.494 72.0573 27.714C71.6253 26.934 71.4093 26.022 71.4093 24.978C71.4093 23.934 71.6193 23.022 72.0393 22.242C72.4713 21.462 73.0713 20.862 73.8393 20.442C74.6073 20.022 75.4893 19.812 76.4853 19.812C77.4573 19.812 78.3213 20.016 79.0773 20.424C79.8333 20.832 80.4213 21.414 80.8413 22.17C81.2733 22.926 81.4893 23.808 81.4893 24.816ZM78.3393 24.006C78.3393 23.478 78.1593 23.058 77.7993 22.746C77.4393 22.434 76.9893 22.278 76.4493 22.278C75.9333 22.278 75.4953 22.428 75.1353 22.728C74.7873 23.028 74.5713 23.454 74.4873 24.006H78.3393ZM90.9791 27.768H86.2631L85.5071 30H82.2851L86.8571 17.364H90.4211L94.9931 30H91.7351L90.9791 27.768ZM90.1871 25.392L88.6211 20.766L87.0731 25.392H90.1871ZM100.957 30.126C100.033 30.126 99.2046 29.976 98.4726 29.676C97.7406 29.376 97.1526 28.932 96.7086 28.344C96.2766 27.756 96.0486 27.048 96.0246 26.22H99.3006C99.3486 26.688 99.5106 27.048 99.7866 27.3C100.063 27.54 100.423 27.66 100.867 27.66C101.323 27.66 101.683 27.558 101.947 27.354C102.211 27.138 102.343 26.844 102.343 26.472C102.343 26.16 102.235 25.902 102.019 25.698C101.815 25.494 101.557 25.326 101.245 25.194C100.945 25.062 100.513 24.912 99.9486 24.744C99.1326 24.492 98.4666 24.24 97.9506 23.988C97.4346 23.736 96.9906 23.364 96.6186 22.872C96.2466 22.38 96.0606 21.738 96.0606 20.946C96.0606 19.77 96.4866 18.852 97.3386 18.192C98.1906 17.52 99.3006 17.184 100.669 17.184C102.061 17.184 103.183 17.52 104.035 18.192C104.887 18.852 105.343 19.776 105.403 20.964H102.073C102.049 20.556 101.899 20.238 101.623 20.01C101.347 19.77 100.993 19.65 100.561 19.65C100.189 19.65 99.8886 19.752 99.6606 19.956C99.4326 20.148 99.3186 20.43 99.3186 20.802C99.3186 21.21 99.5106 21.528 99.8946 21.756C100.279 21.984 100.879 22.23 101.695 22.494C102.511 22.77 103.171 23.034 103.675 23.286C104.191 23.538 104.635 23.904 105.007 24.384C105.379 24.864 105.565 25.482 105.565 26.238C105.565 26.958 105.379 27.612 105.007 28.2C104.647 28.788 104.119 29.256 103.423 29.604C102.727 29.952 101.905 30.126 100.957 30.126ZM109.007 18.912C108.467 18.912 108.023 18.756 107.675 18.444C107.339 18.12 107.171 17.724 107.171 17.256C107.171 16.776 107.339 16.38 107.675 16.068C108.023 15.744 108.467 15.582 109.007 15.582C109.535 15.582 109.967 15.744 110.303 16.068C110.651 16.38 110.825 16.776 110.825 17.256C110.825 17.724 110.651 18.12 110.303 18.444C109.967 18.756 109.535 18.912 109.007 18.912ZM110.537 19.956V30H107.459V19.956H110.537ZM116.583 19.812C117.291 19.812 117.909 19.956 118.437 20.244C118.977 20.532 119.391 20.91 119.679 21.378V19.956H122.757V29.982C122.757 30.906 122.571 31.74 122.199 32.484C121.839 33.24 121.281 33.84 120.525 34.284C119.781 34.728 118.851 34.95 117.735 34.95C116.247 34.95 115.041 34.596 114.117 33.888C113.193 33.192 112.665 32.244 112.533 31.044H115.575C115.671 31.428 115.899 31.728 116.259 31.944C116.619 32.172 117.063 32.286 117.591 32.286C118.227 32.286 118.731 32.1 119.103 31.728C119.487 31.368 119.679 30.786 119.679 29.982V28.56C119.379 29.028 118.965 29.412 118.437 29.712C117.909 30 117.291 30.144 116.583 30.144C115.755 30.144 115.005 29.934 114.333 29.514C113.661 29.082 113.127 28.476 112.731 27.696C112.347 26.904 112.155 25.992 112.155 24.96C112.155 23.928 112.347 23.022 112.731 22.242C113.127 21.462 113.661 20.862 114.333 20.442C115.005 20.022 115.755 19.812 116.583 19.812ZM119.679 24.978C119.679 24.21 119.463 23.604 119.031 23.16C118.611 22.716 118.095 22.494 117.483 22.494C116.871 22.494 116.349 22.716 115.917 23.16C115.497 23.592 115.287 24.192 115.287 24.96C115.287 25.728 115.497 26.34 115.917 26.796C116.349 27.24 116.871 27.462 117.483 27.462C118.095 27.462 118.611 27.24 119.031 26.796C119.463 26.352 119.679 25.746 119.679 24.978ZM131.104 19.848C132.28 19.848 133.216 20.232 133.912 21C134.62 21.756 134.974 22.8 134.974 24.132V30H131.914V24.546C131.914 23.874 131.74 23.352 131.392 22.98C131.044 22.608 130.576 22.422 129.988 22.422C129.4 22.422 128.932 22.608 128.584 22.98C128.236 23.352 128.062 23.874 128.062 24.546V30H124.984V19.956H128.062V21.288C128.374 20.844 128.794 20.496 129.322 20.244C129.85 19.98 130.444 19.848 131.104 19.848Z" fill="#004BE2"/>
<path d="M143.064 15.7145C143.062 15.5223 143.098 15.3317 143.17 15.1533C143.24 14.9767 143.349 14.8177 143.487 14.6874C143.622 14.5533 143.78 14.4455 143.953 14.3698C144.131 14.2948 144.322 14.2552 144.515 14.2533C144.704 14.2541 144.892 14.2937 145.065 14.3698C145.244 14.4429 145.406 14.5509 145.542 14.6874C145.677 14.8183 145.782 14.9773 145.849 15.1533C145.924 15.331 145.963 15.5216 145.965 15.7145V21.517C145.97 21.9121 145.817 22.2929 145.542 22.5759C145.403 22.7143 145.238 22.8232 145.056 22.896C144.874 22.9688 144.679 23.004 144.483 22.9994C144.287 23.0052 144.091 22.9707 143.909 22.8978C143.727 22.8249 143.562 22.7153 143.424 22.5759C143.285 22.4371 143.177 22.2718 143.104 22.0898C143.031 21.9078 142.996 21.713 143 21.517L143.064 15.7145Z" fill="#004BE2"/>
<path d="M146.389 15.0685V20.3627C146.383 20.737 146.486 21.1049 146.685 21.4216C146.869 21.7276 147.138 21.9739 147.458 22.131V22.131C147.993 22.4029 148.584 22.5444 149.184 22.544H154.479C154.927 22.5454 155.363 22.391 155.71 22.1071C156.058 21.8232 156.296 21.4275 156.384 20.9875L157.539 15.185C157.608 14.9068 157.608 14.616 157.539 14.3379C157.473 14.0576 157.342 13.7966 157.157 13.5755C156.98 13.3515 156.751 13.1735 156.49 13.0567C156.233 12.9302 155.951 12.8649 155.664 12.8661H152.223V8.92715C152.22 8.41507 152.015 7.92494 151.652 7.56384C151.289 7.20274 150.798 7.00004 150.285 7.00005C150.029 6.99753 149.781 7.09646 149.597 7.27534C149.422 7.46253 149.32 7.70711 149.311 7.96359V8.60949C149.314 9.44622 149.043 10.2608 148.538 10.9284L147.183 12.739C146.683 13.4087 146.412 14.2219 146.41 15.0579L146.389 15.0685Z" fill="#004BE2"/>
<path d="M173.566 32.485C173.566 32.882 173.408 33.2628 173.127 33.5435C172.846 33.8243 172.466 33.982 172.069 33.982C171.671 33.9833 171.288 33.8285 171.003 33.5508C170.724 33.2655 170.565 32.8839 170.56 32.485V26.497C170.565 26.0981 170.724 25.7165 171.003 25.4311C171.288 25.1535 171.671 24.9987 172.069 25C172.466 25 172.846 25.1577 173.127 25.4385C173.408 25.7192 173.566 26.1 173.566 26.497V32.485Z" fill="#004BE2"/>
<path d="M169.566 32.6526V27.2275C169.564 26.8555 169.46 26.491 169.266 26.1736C169.073 25.856 168.795 25.5988 168.464 25.4311H168.404C167.85 25.1548 167.239 25.0112 166.62 25.012H161.206C160.745 25.0134 160.297 25.1737 159.94 25.4659C159.582 25.7581 159.336 26.1645 159.242 26.6168L158.045 32.6047C157.985 32.8931 157.985 33.1906 158.045 33.479C158.115 33.769 158.25 34.0394 158.44 34.2694C158.633 34.4943 158.869 34.6777 159.135 34.8083C159.4 34.9366 159.691 35.0022 159.985 34.9999H163.578V38.9999C163.576 39.2627 163.627 39.5232 163.728 39.766C163.829 40.0087 163.977 40.2287 164.164 40.413C164.348 40.6015 164.568 40.7508 164.811 40.8517C165.054 40.9526 165.315 41.003 165.578 40.9999C165.709 41.0015 165.839 40.9769 165.96 40.9275C166.081 40.8781 166.191 40.8049 166.284 40.7123C166.377 40.6197 166.45 40.5095 166.499 40.3882C166.549 40.2668 166.573 40.1368 166.572 40.0059V39.3352C166.578 38.4718 166.859 37.6328 167.374 36.94L168.775 35.0837C169.291 34.391 169.572 33.552 169.578 32.6886L169.566 32.6526Z" fill="#004BE2"/>
<line x1="146.646" y1="35.6464" x2="170.646" y2="11.6464" stroke="#004BE2"/>
</svg>
