<svg width="36" height="36" viewBox="0 0 36 36" fill="none" xmlns="http://www.w3.org/2000/svg">
<rect width="36" height="36" rx="4" fill="#004BE2"/>
<path d="M3.06393 9.7145C3.06224 9.52232 3.09822 9.33167 3.16982 9.15331C3.24041 8.97668 3.34883 8.81765 3.48747 8.68741C3.62151 8.55329 3.77955 8.44555 3.95337 8.36977C4.13107 8.29481 4.3217 8.25524 4.51456 8.2533C4.70412 8.25409 4.89151 8.29373 5.06516 8.36977C5.24351 8.44294 5.4055 8.55092 5.54164 8.68741C5.67698 8.81827 5.78183 8.97734 5.84871 9.15331C5.92367 9.33101 5.96324 9.52164 5.96518 9.7145V15.517C5.96968 15.9121 5.81737 16.2929 5.54164 16.5759C5.40292 16.7143 5.23757 16.8232 5.05558 16.896C4.87359 16.9688 4.67874 17.004 4.48279 16.9994C4.28668 17.0052 4.09146 16.9707 3.9093 16.8978C3.72713 16.8249 3.56192 16.7153 3.42394 16.5759C3.28547 16.4371 3.17655 16.2718 3.10375 16.0898C3.03096 15.9078 2.9958 15.713 3.0004 15.517L3.06393 9.7145Z" fill="#F2FFF4"/>
<path d="M3.06393 9.7145C3.06224 9.52232 3.09822 9.33167 3.16982 9.15331C3.24041 8.97668 3.34883 8.81765 3.48747 8.68741C3.62151 8.55329 3.77955 8.44555 3.95337 8.36977C4.13107 8.29481 4.3217 8.25524 4.51456 8.2533C4.70412 8.25409 4.89151 8.29373 5.06516 8.36977C5.24351 8.44294 5.4055 8.55092 5.54164 8.68741C5.67698 8.81827 5.78183 8.97734 5.84871 9.15331C5.92367 9.33101 5.96324 9.52164 5.96518 9.7145V15.517C5.96968 15.9121 5.81737 16.2929 5.54164 16.5759C5.40292 16.7143 5.23757 16.8232 5.05558 16.896C4.87359 16.9688 4.67874 17.004 4.48279 16.9994C4.28668 17.0052 4.09146 16.9707 3.9093 16.8978C3.72713 16.8249 3.56192 16.7153 3.42394 16.5759C3.28547 16.4371 3.17655 16.2718 3.10375 16.0898C3.03096 15.9078 2.9958 15.713 3.0004 15.517L3.06393 9.7145Z" fill="white"/>
<path d="M6.38893 9.06848V14.3627C6.38283 14.737 6.48585 15.1049 6.6854 15.4216C6.86933 15.7276 7.13774 15.9739 7.45836 16.131V16.131C7.99303 16.4029 8.58446 16.5444 9.18429 16.544H14.4785C14.9273 16.5454 15.3627 16.391 15.7103 16.1071C16.0579 15.8232 16.2962 15.4275 16.3845 14.9875L17.5386 9.18496C17.6077 8.90682 17.6077 8.61601 17.5386 8.33787C17.4725 8.05758 17.342 7.79655 17.1574 7.5755C16.98 7.35148 16.7512 7.17352 16.4904 7.05667C16.2335 6.93019 15.9508 6.86494 15.6645 6.86607H12.2232V2.92715C12.2204 2.41507 12.015 1.92494 11.6519 1.56384C11.2888 1.20274 10.7976 1.00004 10.2855 1.00005C10.0288 0.99753 9.78142 1.09646 9.59724 1.27534C9.42169 1.46253 9.32009 1.70711 9.31135 1.96359V2.60949C9.31444 3.44622 9.0429 4.26085 8.53839 4.92837L7.18307 6.73902C6.68269 7.40871 6.41161 8.22192 6.41009 9.0579L6.38893 9.06848Z" fill="#F2FFF4"/>
<path d="M6.38893 9.06848V14.3627C6.38283 14.737 6.48585 15.1049 6.6854 15.4216C6.86933 15.7276 7.13774 15.9739 7.45836 16.131V16.131C7.99303 16.4029 8.58446 16.5444 9.18429 16.544H14.4785C14.9273 16.5454 15.3627 16.391 15.7103 16.1071C16.0579 15.8232 16.2962 15.4275 16.3845 14.9875L17.5386 9.18496C17.6077 8.90682 17.6077 8.61601 17.5386 8.33787C17.4725 8.05758 17.342 7.79655 17.1574 7.5755C16.98 7.35148 16.7512 7.17352 16.4904 7.05667C16.2335 6.93019 15.9508 6.86494 15.6645 6.86607H12.2232V2.92715C12.2204 2.41507 12.015 1.92494 11.6519 1.56384C11.2888 1.20274 10.7976 1.00004 10.2855 1.00005C10.0288 0.99753 9.78142 1.09646 9.59724 1.27534C9.42169 1.46253 9.32009 1.70711 9.31135 1.96359V2.60949C9.31444 3.44622 9.0429 4.26085 8.53839 4.92837L7.18307 6.73902C6.68269 7.40871 6.41161 8.22192 6.41009 9.0579L6.38893 9.06848Z" fill="white"/>
<path d="M33.5655 26.485C33.5655 26.882 33.4078 27.2628 33.1271 27.5435C32.8463 27.8243 32.4656 27.982 32.0685 27.982C31.6705 27.9833 31.2879 27.8285 31.0027 27.5508C30.7239 27.2655 30.5652 26.8839 30.5596 26.485V20.497C30.5652 20.0981 30.7239 19.7165 31.0027 19.4311C31.2879 19.1535 31.6705 18.9987 32.0685 19C32.4656 19 32.8463 19.1577 33.1271 19.4385C33.4078 19.7192 33.5655 20.1 33.5655 20.497V26.485Z" fill="#F2FFF4"/>
<path d="M33.5655 26.485C33.5655 26.882 33.4078 27.2628 33.1271 27.5435C32.8463 27.8243 32.4656 27.982 32.0685 27.982C31.6705 27.9833 31.2879 27.8285 31.0027 27.5508C30.7239 27.2655 30.5652 26.8839 30.5596 26.485V20.497C30.5652 20.0981 30.7239 19.7165 31.0027 19.4311C31.2879 19.1535 31.6705 18.9987 32.0685 19C32.4656 19 32.8463 19.1577 33.1271 19.4385C33.4078 19.7192 33.5655 20.1 33.5655 20.497V26.485Z" fill="white"/>
<path d="M29.5657 26.6526V21.2275C29.564 20.8555 29.4605 20.491 29.2663 20.1736C29.0735 19.856 28.7955 19.5988 28.4639 19.4311H28.404C27.8498 19.1548 27.2389 19.0112 26.6196 19.012H21.2064C20.7446 19.0134 20.2973 19.1737 19.9397 19.4659C19.5821 19.7581 19.3358 20.1645 19.2424 20.6168L18.0448 26.6047C17.9851 26.8931 17.9851 27.1906 18.0448 27.479C18.1148 27.769 18.2499 28.0394 18.44 28.2694C18.6325 28.4943 18.8689 28.6777 19.1346 28.8083C19.3995 28.9366 19.6905 29.0022 19.9849 28.9999H23.5777V32.9999C23.576 33.2627 23.627 33.5232 23.7278 33.766C23.8286 34.0087 23.9771 34.2287 24.1645 34.413C24.348 34.6015 24.5679 34.7508 24.8108 34.8517C25.0537 34.9526 25.3146 35.003 25.5777 34.9999C25.7087 35.0015 25.8386 34.9769 25.96 34.9275C26.0813 34.8781 26.1915 34.8049 26.2841 34.7123C26.3767 34.6197 26.4499 34.5095 26.4993 34.3882C26.5487 34.2668 26.5733 34.1368 26.5717 34.0059V33.3352C26.5776 32.4718 26.8587 31.6328 27.3741 30.94L28.7752 29.0837C29.2906 28.391 29.5717 27.552 29.5776 26.6886L29.5657 26.6526Z" fill="#F2FFF4"/>
<path d="M29.5657 26.6526V21.2275C29.564 20.8555 29.4605 20.491 29.2663 20.1736C29.0735 19.856 28.7955 19.5988 28.4639 19.4311H28.404C27.8498 19.1548 27.2389 19.0112 26.6196 19.012H21.2064C20.7446 19.0134 20.2973 19.1737 19.9397 19.4659C19.5821 19.7581 19.3358 20.1645 19.2424 20.6168L18.0448 26.6047C17.9851 26.8931 17.9851 27.1906 18.0448 27.479C18.1148 27.769 18.2499 28.0394 18.44 28.2694C18.6325 28.4943 18.8689 28.6777 19.1346 28.8083C19.3995 28.9366 19.6905 29.0022 19.9849 28.9999H23.5777V32.9999C23.576 33.2627 23.627 33.5232 23.7278 33.766C23.8286 34.0087 23.9771 34.2287 24.1645 34.413C24.348 34.6015 24.5679 34.7508 24.8108 34.8517C25.0537 34.9526 25.3146 35.003 25.5777 34.9999C25.7087 35.0015 25.8386 34.9769 25.96 34.9275C26.0813 34.8781 26.1915 34.8049 26.2841 34.7123C26.3767 34.6197 26.4499 34.5095 26.4993 34.3882C26.5487 34.2668 26.5733 34.1368 26.5717 34.0059V33.3352C26.5776 32.4718 26.8587 31.6328 27.3741 30.94L28.7752 29.0837C29.2906 28.391 29.5717 27.552 29.5776 26.6886L29.5657 26.6526Z" fill="white"/>
<line x1="6.64645" y1="29.6464" x2="30.6464" y2="5.64645" stroke="#F2FFF4"/>
<line x1="6.64645" y1="29.6464" x2="30.6464" y2="5.64645" stroke="white"/>
</svg>
