<svg width="540" height="240" viewBox="0 0 540 240" fill="none" xmlns="http://www.w3.org/2000/svg">
<rect width="540" height="240" rx="4" fill="white"/>
<path d="M49.6776 30C46.7988 30 44.4276 32.71 44.4276 36V59.626L43.2796 58.25L42.8421 57.812C41.8687 56.7045 40.5511 56.0827 39.1776 56.0827C37.8041 56.0827 36.4865 56.7045 35.5131 57.812C34.544 58.9244 34 60.4303 34 62C34 63.5697 34.544 65.0755 35.5131 66.188V66.25L49.8421 82.438L49.9506 82.5L50.0048 82.626C52.5231 84.8076 55.5948 85.9921 58.7548 86H61.7648C63.6476 86.0044 65.5125 85.5839 67.2527 84.7625C68.9928 83.9411 70.5739 82.735 71.9051 81.2134C73.2363 79.6919 74.2915 77.8848 75.01 75.8959C75.7285 73.9071 76.0962 71.7757 76.0921 69.624V54C76.0921 50.71 73.7191 48 70.8421 48C70.0966 48 69.4071 48.234 68.7631 48.562C68.1891 45.962 66.1188 44 63.6776 44C62.3371 44 61.1068 44.6 60.1776 45.562C59.2209 44.5631 57.9734 44.0063 56.6776 44C56.0796 44.0085 55.4875 44.1358 54.9276 44.376V36C54.9276 32.71 52.5563 30 49.6776 30ZM49.6776 34C50.6488 34 51.4276 34.89 51.4276 36V58H54.9276V50C54.9276 48.89 55.7063 48 56.6776 48C57.6488 48 58.4276 48.89 58.4276 50V58H61.9276V50C61.9276 48.89 62.7063 48 63.6776 48C64.6488 48 65.4276 48.89 65.4276 50V58H69.0921V54C69.0921 52.89 69.8708 52 70.8421 52C71.8116 52 72.5921 52.89 72.5921 54V69.626C72.5921 76.554 67.8268 82 61.7631 82H58.7566C56.1928 82 53.9773 80.954 52.1381 79.374L37.9736 63.374C37.1948 62.484 37.1948 61.514 37.9736 60.624C38.7541 59.734 39.6011 59.734 40.3798 60.624L47.9276 69.25V36C47.9276 34.89 48.7063 34 49.6776 34Z" fill="#E8B53F"/>
<path d="M55.0313 131.9L49.1313 143.856L35.9313 145.775L45.4813 155.088L43.225 168.231L55.0313 162.025L66.8375 168.225L64.5813 155.081L74.1313 145.775L60.9313 143.856L55.0313 131.9Z" fill="#FFDA76" fill-opacity="0.15"/>
<path d="M79.7875 142.05L63.9187 139.744L56.825 125.363C56.6312 124.969 56.3125 124.65 55.9187 124.456C54.9312 123.969 53.7312 124.375 53.2375 125.363L46.1437 139.744L30.275 142.05C29.8375 142.113 29.4375 142.319 29.1312 142.631C28.761 143.012 28.557 143.524 28.564 144.055C28.5711 144.586 28.7886 145.092 29.1687 145.463L40.65 156.656L37.9375 172.463C37.8739 172.83 37.9146 173.208 38.0549 173.554C38.1953 173.9 38.4298 174.199 38.7317 174.419C39.0336 174.638 39.3909 174.768 39.7631 174.795C40.1353 174.821 40.5075 174.743 40.8375 174.569L55.0312 167.106L69.225 174.569C69.6125 174.775 70.0625 174.844 70.4937 174.769C71.5812 174.581 72.3125 173.55 72.125 172.463L69.4125 156.656L80.8937 145.463C81.2062 145.156 81.4125 144.756 81.475 144.319C81.6437 143.225 80.8812 142.213 79.7875 142.05V142.05ZM64.5812 155.081L66.8375 168.225L55.0312 162.025L43.225 168.231L45.4812 155.088L35.9312 145.775L49.1312 143.856L55.0312 131.9L60.9312 143.856L74.1312 145.775L64.5812 155.081V155.081Z" fill="#E8B53F"/>
<path d="M169 81.0024H151C150.062 81.0024 149.109 80.2055 148.141 78.6118C147.172 77.018 146.406 75.2837 145.844 73.4087C145.281 71.5337 145 70.0649 145 69.0024V57.0024C145 56.1899 145.297 55.4868 145.891 54.893C146.484 54.2993 147.187 54.0024 148 54.0024C148.594 54.0024 149.156 54.1899 149.688 54.5649L148 36.2837C147.937 35.4087 148.172 34.6508 148.703 34.0102C149.234 33.3696 149.906 33.0337 150.719 33.0024C151.531 32.9712 152.25 33.2446 152.875 33.8227C153.5 34.4008 153.828 35.1118 153.859 35.9555L155.5 51.0024C155.656 51.3462 155.883 51.6821 156.18 52.0102C156.477 52.3383 156.75 52.5024 157 52.5024L158.641 35.9555C158.672 35.1118 158.992 34.4008 159.602 33.8227C160.211 33.2446 160.922 32.9712 161.734 33.0024C162.547 33.0337 163.227 33.3696 163.773 34.0102C164.32 34.6508 164.563 35.4087 164.5 36.2837C163.5 42.0962 163 48.0024 163 54.0024C163 53.1899 163.289 52.4868 163.867 51.893C164.445 51.2993 165.148 51.0024 165.977 51.0024C166.805 51.0024 167.516 51.2993 168.109 51.893C168.703 52.4868 169 53.1899 169 54.0024V57.0024C169 56.1899 169.289 55.4868 169.867 54.893C170.445 54.2993 171.148 54.0024 171.977 54.0024C172.805 54.0024 173.516 54.2993 174.109 54.893C174.703 55.4868 175 56.1899 175 57.0024V67.5024C175 69.4712 174.797 71.2758 174.391 72.9165C173.984 74.5571 173.484 75.854 172.891 76.8071C172.297 77.7602 171.703 78.5727 171.109 79.2446C170.516 79.9165 170.016 80.3774 169.609 80.6274L169 81.0024Z" stroke="#E8B53F" stroke-width="4" stroke-linejoin="round"/>
<path d="M160.031 133.9L154.131 145.856L140.931 147.775L150.481 157.088L148.225 170.231L160.031 164.025L171.838 170.225L169.581 157.081L179.131 147.775L165.931 145.856L160.031 133.9Z" fill="#FFDA76" fill-opacity="0.15"/>
<path d="M184.787 144.05L168.919 141.744L161.825 127.363C161.631 126.969 161.312 126.65 160.919 126.456C159.931 125.969 158.731 126.375 158.237 127.363L151.144 141.744L135.275 144.05C134.837 144.113 134.437 144.319 134.131 144.631C133.761 145.012 133.557 145.524 133.564 146.055C133.571 146.586 133.789 147.092 134.169 147.463L145.65 158.656L142.937 174.463C142.874 174.83 142.915 175.208 143.055 175.554C143.195 175.9 143.43 176.199 143.732 176.419C144.034 176.638 144.391 176.768 144.763 176.795C145.135 176.821 145.508 176.743 145.837 176.569L160.031 169.106L174.225 176.569C174.612 176.775 175.062 176.844 175.494 176.769C176.581 176.581 177.312 175.55 177.125 174.463L174.412 158.656L185.894 147.463C186.206 147.156 186.412 146.756 186.475 146.319C186.644 145.225 185.881 144.213 184.787 144.05V144.05ZM169.581 157.081L171.837 170.225L160.031 164.025L148.225 170.231L150.481 157.088L140.931 147.775L154.131 145.856L160.031 133.9L165.931 145.856L179.131 147.775L169.581 157.081V157.081Z" fill="#E8B53F"/>
<path d="M254.149 60.4V40C254.149 39.0452 254.528 38.1296 255.203 37.4544C255.878 36.7793 256.794 36.4 257.749 36.4C258.704 36.4 259.619 36.7793 260.294 37.4544C260.97 38.1296 261.349 39.0452 261.349 40V58" stroke="#E8B53F" stroke-width="4" stroke-linecap="round" stroke-linejoin="round"/>
<path d="M275.791 60.1C275.791 59.2248 276.17 58.3855 276.846 57.7666C277.522 57.1477 278.439 56.8 279.395 56.8C280.351 56.8 281.268 57.1477 281.944 57.7666C282.62 58.3855 283 59.2248 283 60.1V68.8C283 72.3009 281.481 75.6584 278.777 78.1339C276.073 80.6093 272.405 82 268.581 82H263.775H264.275C261.887 82.0004 259.537 81.4579 257.434 80.4211C255.332 79.3843 253.544 77.8858 252.231 76.06C252.073 75.8404 251.916 75.6204 251.76 75.4C251.01 74.3462 251.979 73.7464 247.463 66.3984C247.003 65.6494 246.88 64.7655 247.12 63.9348C247.361 63.104 247.946 62.392 248.751 61.95C249.609 61.479 250.614 61.2837 251.606 61.3953C252.599 61.5069 253.523 61.919 254.23 62.566L257.763 65.8" stroke="#E8B53F" stroke-width="4" stroke-linecap="round" stroke-linejoin="round"/>
<path d="M261.349 42.4V37.6C261.349 37.1272 261.442 36.6591 261.623 36.2223C261.804 35.7856 262.069 35.3887 262.403 35.0544C262.738 34.7201 263.134 34.455 263.571 34.274C264.008 34.0931 264.476 34 264.949 34C265.422 34 265.89 34.0931 266.327 34.274C266.763 34.455 267.16 34.7201 267.494 35.0544C267.829 35.3887 268.094 35.7856 268.275 36.2223C268.456 36.6591 268.549 37.1272 268.549 37.6V58" stroke="#E8B53F" stroke-width="4" stroke-linecap="round" stroke-linejoin="round"/>
<path d="M268.549 42.4C268.549 41.4453 268.928 40.5296 269.603 39.8545C270.278 39.1793 271.194 38.8 272.149 38.8C273.104 38.8 274.019 39.1793 274.694 39.8545C275.37 40.5296 275.749 41.4453 275.749 42.4V58" stroke="#E8B53F" stroke-width="4" stroke-linecap="round" stroke-linejoin="round"/>
<path d="M265.031 133.9L259.131 145.856L245.931 147.775L255.481 157.088L253.225 170.231L265.031 164.025L276.838 170.225L274.581 157.081L284.131 147.775L270.931 145.856L265.031 133.9Z" fill="#FFDA76" fill-opacity="0.15"/>
<path d="M289.787 144.05L273.919 141.744L266.825 127.363C266.631 126.969 266.312 126.65 265.919 126.456C264.931 125.969 263.731 126.375 263.237 127.363L256.144 141.744L240.275 144.05C239.837 144.113 239.437 144.319 239.131 144.631C238.761 145.012 238.557 145.524 238.564 146.055C238.571 146.586 238.789 147.092 239.169 147.463L250.65 158.656L247.937 174.463C247.874 174.83 247.915 175.208 248.055 175.554C248.195 175.9 248.43 176.199 248.732 176.419C249.034 176.638 249.391 176.768 249.763 176.795C250.135 176.821 250.508 176.743 250.837 176.569L265.031 169.106L279.225 176.569C279.612 176.775 280.062 176.844 280.494 176.769C281.581 176.581 282.312 175.55 282.125 174.463L279.412 158.656L290.894 147.463C291.206 147.156 291.412 146.756 291.475 146.319C291.644 145.225 290.881 144.213 289.787 144.05V144.05ZM274.581 157.081L276.837 170.225L265.031 164.025L253.225 170.231L255.481 157.088L245.931 147.775L259.131 145.856L265.031 133.9L270.931 145.856L284.131 147.775L274.581 157.081V157.081Z" fill="#E8B53F"/>
<path d="M357.159 62.4V42C357.159 41.0452 357.539 40.1296 358.215 39.4544C358.891 38.7793 359.808 38.4 360.764 38.4C361.72 38.4 362.637 38.7793 363.313 39.4544C363.989 40.1296 364.369 41.0452 364.369 42V60" stroke="#E8B53F" stroke-width="4" stroke-linecap="round" stroke-linejoin="round"/>
<path d="M378.79 49.2C378.79 48.2452 379.17 47.3295 379.846 46.6544C380.522 45.9793 381.439 45.6 382.395 45.6C383.351 45.6 384.268 45.9793 384.944 46.6544C385.62 47.3295 386 48.2452 386 49.2V69.6C386 73.4191 384.481 77.0818 381.776 79.7823C379.072 82.4828 375.404 84 371.58 84H366.773H367.273C364.884 84.0004 362.534 83.4085 360.431 82.2775C358.328 81.1464 356.54 79.5117 355.227 77.52C355.069 77.2804 354.912 77.0404 354.756 76.8C354.006 75.6504 355.979 74.4688 351.463 66.4528C351.003 65.6357 350.88 64.6714 351.12 63.7651C351.361 62.8589 351.946 62.0821 352.751 61.6C353.609 61.0861 354.614 60.8731 355.607 60.9948C356.6 61.1166 356.523 60.5661 357.231 61.272L357.159 62.4" stroke="#E8B53F" stroke-width="4" stroke-linecap="round" stroke-linejoin="round"/>
<path d="M364.369 44.4V39.6C364.369 39.1272 364.463 38.6591 364.644 38.2223C364.825 37.7856 365.09 37.3887 365.425 37.0544C365.76 36.7201 366.157 36.455 366.595 36.274C367.032 36.0931 367.501 36 367.974 36C368.448 36 368.917 36.0931 369.354 36.274C369.791 36.455 370.189 36.7201 370.524 37.0544C370.858 37.3887 371.124 37.7856 371.305 38.2223C371.486 38.6591 371.58 39.1272 371.58 39.6V60" stroke="#E8B53F" stroke-width="4" stroke-linecap="round" stroke-linejoin="round"/>
<path d="M371.58 44.4C371.58 43.4453 371.959 42.5296 372.636 41.8545C373.312 41.1793 374.229 40.8 375.185 40.8C376.141 40.8 377.058 41.1793 377.734 41.8545C378.41 42.5296 378.79 43.4453 378.79 44.4V60" stroke="#E8B53F" stroke-width="4" stroke-linecap="round" stroke-linejoin="round"/>
<path d="M370.031 133.9L364.131 145.856L350.931 147.775L360.481 157.088L358.225 170.231L370.031 164.025L381.838 170.225L379.581 157.081L389.131 147.775L375.931 145.856L370.031 133.9Z" fill="#FFDA76" fill-opacity="0.15"/>
<path d="M394.787 144.05L378.919 141.744L371.825 127.363C371.631 126.969 371.312 126.65 370.919 126.456C369.931 125.969 368.731 126.375 368.237 127.363L361.144 141.744L345.275 144.05C344.837 144.113 344.437 144.319 344.131 144.631C343.761 145.012 343.557 145.524 343.564 146.055C343.571 146.586 343.789 147.092 344.169 147.463L355.65 158.656L352.937 174.463C352.874 174.83 352.915 175.208 353.055 175.554C353.195 175.9 353.43 176.199 353.732 176.419C354.034 176.638 354.391 176.768 354.763 176.795C355.135 176.821 355.508 176.743 355.837 176.569L370.031 169.106L384.225 176.569C384.612 176.775 385.062 176.844 385.494 176.769C386.581 176.581 387.312 175.55 387.125 174.463L384.412 158.656L395.894 147.463C396.206 147.156 396.412 146.756 396.475 146.319C396.644 145.225 395.881 144.213 394.787 144.05V144.05ZM379.581 157.081L381.837 170.225L370.031 164.025L358.225 170.231L360.481 157.088L350.931 147.775L364.131 145.856L370.031 133.9L375.931 145.856L389.131 147.775L379.581 157.081V157.081Z" fill="#E8B53F"/>
<path d="M463.674 62.3999V41.9999C463.674 41.0451 463.994 40.1294 464.565 39.4543C465.135 38.7792 465.908 38.3999 466.715 38.3999C467.521 38.3999 468.295 38.7792 468.865 39.4543C469.435 40.1294 469.755 41.0451 469.755 41.9999V59.9999" stroke="#E8B53F" stroke-width="4" stroke-linecap="round" stroke-linejoin="round"/>
<path d="M481.918 51.6C481.918 50.6452 482.239 49.7295 482.809 49.0544C483.379 48.3793 484.153 48 484.959 48C485.766 48 486.539 48.3793 487.109 49.0544C487.68 49.7295 488 50.6452 488 51.6V69.6C488 73.4191 486.719 77.0818 484.438 79.7823C482.157 82.4829 479.063 84 475.837 84H471.783H472.204C470.19 84.0004 468.207 83.4085 466.434 82.2775C464.66 81.1465 463.152 79.5117 462.044 77.52C461.911 77.2804 461.779 77.0404 461.647 76.8C461.014 75.6504 456.2 69.7968 452.391 61.7808C452.002 60.9637 451.899 59.9994 452.102 59.0932C452.304 58.1869 452.798 57.4101 453.477 56.928C454.201 56.4141 455.048 56.2011 455.886 56.3228C456.723 56.4446 457.502 56.8941 458.099 57.6L463.674 63" stroke="#E8B53F" stroke-width="4" stroke-linecap="round" stroke-linejoin="round"/>
<path d="M469.755 44.4V39.6C469.755 39.1272 469.834 38.6591 469.987 38.2223C470.14 37.7856 470.364 37.3887 470.646 37.0544C470.928 36.7201 471.264 36.455 471.633 36.274C472.001 36.0931 472.397 36 472.796 36C473.196 36 473.591 36.0931 473.96 36.274C474.329 36.455 474.664 36.7201 474.946 37.0544C475.229 37.3887 475.453 37.7856 475.606 38.2223C475.758 38.6591 475.837 39.1272 475.837 39.6V60" stroke="#E8B53F" stroke-width="4" stroke-linecap="round" stroke-linejoin="round"/>
<path d="M475.837 44.4C475.837 43.4453 476.157 42.5296 476.728 41.8545C477.298 41.1793 478.071 40.8 478.878 40.8C479.684 40.8 480.458 41.1793 481.028 41.8545C481.598 42.5296 481.919 43.4453 481.919 44.4V60" stroke="#E8B53F" stroke-width="4" stroke-linecap="round" stroke-linejoin="round"/>
<path d="M475.031 133.9L469.131 145.856L455.931 147.775L465.481 157.088L463.225 170.231L475.031 164.025L486.838 170.225L484.581 157.081L494.131 147.775L480.931 145.856L475.031 133.9Z" fill="#FFDA76" fill-opacity="0.15"/>
<path d="M499.787 144.05L483.919 141.744L476.825 127.363C476.631 126.969 476.312 126.65 475.919 126.456C474.931 125.969 473.731 126.375 473.237 127.363L466.144 141.744L450.275 144.05C449.837 144.113 449.437 144.319 449.131 144.631C448.761 145.012 448.557 145.524 448.564 146.055C448.571 146.586 448.789 147.092 449.169 147.463L460.65 158.656L457.937 174.463C457.874 174.83 457.915 175.208 458.055 175.554C458.195 175.9 458.43 176.199 458.732 176.419C459.034 176.638 459.391 176.768 459.763 176.795C460.135 176.821 460.508 176.743 460.837 176.569L475.031 169.106L489.225 176.569C489.612 176.775 490.062 176.844 490.494 176.769C491.581 176.581 492.312 175.55 492.125 174.463L489.412 158.656L500.894 147.463C501.206 147.156 501.412 146.756 501.475 146.319C501.644 145.225 500.881 144.213 499.787 144.05V144.05ZM484.581 157.081L486.837 170.225L475.031 164.025L463.225 170.231L465.481 157.088L455.931 147.775L469.131 145.856L475.031 133.9L480.931 145.856L494.131 147.775L484.581 157.081V157.081Z" fill="#E8B53F"/>
</svg>
