<svg width="533" height="240" viewBox="0 0 533 240" fill="none" xmlns="http://www.w3.org/2000/svg">
<rect width="533" height="240" rx="4" fill="white"/>
<path d="M88.6952 127.77C88.6769 125.68 89.0682 123.607 89.8468 121.667C90.6145 119.746 91.7936 118.017 93.3012 116.6C94.7589 115.142 96.4776 113.97 98.3679 113.146C100.3 112.331 102.373 111.901 104.471 111.879C106.532 111.888 108.57 112.319 110.459 113.146C112.398 113.942 114.16 115.116 115.64 116.6C117.112 118.023 118.252 119.753 118.98 121.667C119.795 123.6 120.225 125.673 120.246 127.77V190.872C120.295 195.169 118.639 199.31 115.64 202.388C114.132 203.893 112.334 205.078 110.355 205.869C108.375 206.661 106.256 207.043 104.125 206.993C101.993 207.057 99.8697 206.681 97.8886 205.888C95.9076 205.096 94.1109 203.904 92.6104 202.388C91.1045 200.879 89.92 199.081 89.1283 197.102C88.3367 195.122 87.9543 193.003 88.0043 190.872L88.6952 127.77Z" fill="#7EE58E"/>
<path d="M124.856 120.745V178.32C124.79 182.39 125.91 186.391 128.08 189.835C130.08 193.163 132.999 195.842 136.486 197.55V197.55C142.301 200.507 148.732 202.046 155.256 202.041H212.831C217.711 202.056 222.446 200.377 226.226 197.29C230.006 194.203 232.597 189.899 233.558 185.114L246.109 122.012C246.86 118.987 246.86 115.824 246.109 112.8C245.39 109.751 243.971 106.913 241.964 104.509C240.034 102.072 237.545 100.137 234.709 98.8665C231.916 97.4909 228.841 96.7813 225.727 96.7937H188.304V53.9578C188.273 48.389 186.04 43.0587 182.091 39.1317C178.142 35.2048 172.8 33.0004 167.231 33.0005C164.439 32.9731 161.749 34.049 159.746 35.9944C157.837 38.0301 156.732 40.6898 156.637 43.479V50.5032C156.671 59.6026 153.718 68.4618 148.231 75.7212L133.492 95.4119C128.051 102.695 125.103 111.539 125.086 120.63L124.856 120.745Z" fill="#7EE58E"/>
<path d="M441.345 114.75C441.345 118.797 439.737 122.679 436.875 125.541C434.013 128.403 430.132 130.01 426.085 130.01C422.028 130.023 418.127 128.446 415.22 125.615C412.377 122.706 410.76 118.817 410.703 114.75V53.7097C410.76 49.6429 412.377 45.7536 415.22 42.8445C418.127 40.0143 422.028 38.4364 426.085 38.4495C430.132 38.4495 434.013 40.0573 436.875 42.9192C439.737 45.781 441.345 49.6624 441.345 53.7097V114.75Z" fill="#E8B53F"/>
<path d="M400.571 116.459V61.1564C400.554 57.3637 399.499 53.6481 397.519 50.4132C395.553 47.1754 392.72 44.5533 389.34 42.8442H388.729C383.08 40.0269 376.852 38.5639 370.539 38.5713H315.358C310.65 38.586 306.091 40.2199 302.445 43.1987C298.8 46.1775 296.29 50.3199 295.337 54.9303L283.129 115.971C282.52 118.91 282.52 121.943 283.129 124.883C283.842 127.84 285.22 130.595 287.158 132.94C289.12 135.233 291.529 137.102 294.238 138.434C296.939 139.742 299.905 140.41 302.906 140.387H339.53V181.162C339.513 183.841 340.033 186.497 341.061 188.971C342.088 191.446 343.602 193.689 345.512 195.568C347.382 197.489 349.624 199.01 352.1 200.039C354.577 201.067 357.237 201.581 359.918 201.55C361.253 201.566 362.578 201.315 363.815 200.812C365.052 200.308 366.175 199.562 367.119 198.618C368.064 197.674 368.809 196.551 369.313 195.314C369.816 194.077 370.067 192.752 370.051 191.417V184.58C370.111 175.779 372.977 167.226 378.23 160.164L392.514 141.242C397.767 134.18 400.632 125.627 400.693 116.825L400.571 116.459Z" fill="#E8B53F"/>
</svg>
