<svg width="140" height="200" viewBox="0 0 140 200" fill="none" xmlns="http://www.w3.org/2000/svg">
<rect width="140" height="200" rx="4" fill="#F4E4C2"/>
<path d="M40.0232 23.925L35.5982 32.8922L25.6982 34.3313L32.8607 41.3157L31.1686 51.1735L40.0232 46.5188L48.8779 51.1688L47.1857 41.311L54.3482 34.3313L44.4482 32.8922L40.0232 23.925Z" fill="#FFDA76" fill-opacity="0.15"/>
<path d="M58.5906 31.5375L46.689 29.8078L41.3687 19.0219C41.2234 18.7266 40.9843 18.4875 40.689 18.3422C39.9484 17.9766 39.0484 18.2813 38.6781 19.0219L33.3578 29.8078L21.4562 31.5375C21.1281 31.5844 20.8281 31.7391 20.5984 31.9735C20.3207 32.2589 20.1677 32.6428 20.173 33.041C20.1783 33.4392 20.3414 33.8189 20.6265 34.0969L29.2375 42.4922L27.2031 54.3469C27.1554 54.6227 27.1859 54.9063 27.2912 55.1656C27.3965 55.4249 27.5723 55.6495 27.7987 55.814C28.0252 55.9784 28.2932 56.0761 28.5723 56.0961C28.8515 56.116 29.1306 56.0572 29.3781 55.9266L40.0234 50.3297L50.6687 55.9266C50.9593 56.0813 51.2968 56.1328 51.6203 56.0766C52.4359 55.936 52.9843 55.1625 52.8437 54.3469L50.8093 42.4922L59.4203 34.0969C59.6547 33.8672 59.8093 33.5672 59.8562 33.2391C59.9828 32.4188 59.4109 31.6594 58.5906 31.5375V31.5375ZM47.1859 41.311L48.8781 51.1688L40.0234 46.5188L31.1687 51.1735L32.8609 41.3156L25.6984 34.3313L35.5984 32.8922L40.0234 23.925L44.4484 32.8922L54.3484 34.3313L47.1859 41.311V41.311Z" fill="#E8B53F"/>
<path d="M96.0232 23.925L91.5982 32.8922L81.6982 34.3313L88.8607 41.3157L87.1686 51.1735L96.0232 46.5188L104.878 51.1688L103.186 41.311L110.348 34.3313L100.448 32.8922L96.0232 23.925Z" fill="#FFDA76" fill-opacity="0.15"/>
<path d="M114.591 31.5375L102.689 29.8078L97.3687 19.0219C97.2234 18.7266 96.9843 18.4875 96.689 18.3422C95.9484 17.9766 95.0484 18.2813 94.6781 19.0219L89.3578 29.8078L77.4562 31.5375C77.1281 31.5844 76.8281 31.7391 76.5984 31.9735C76.3207 32.2589 76.1677 32.6428 76.173 33.041C76.1783 33.4392 76.3414 33.8189 76.6265 34.0969L85.2375 42.4922L83.2031 54.3469C83.1554 54.6227 83.1859 54.9063 83.2912 55.1656C83.3965 55.4249 83.5723 55.6495 83.7987 55.814C84.0252 55.9784 84.2932 56.0761 84.5723 56.0961C84.8515 56.116 85.1306 56.0572 85.3781 55.9266L96.0234 50.3297L106.669 55.9266C106.959 56.0813 107.297 56.1328 107.62 56.0766C108.436 55.936 108.984 55.1625 108.844 54.3469L106.809 42.4922L115.42 34.0969C115.655 33.8672 115.809 33.5672 115.856 33.2391C115.983 32.4188 115.411 31.6594 114.591 31.5375V31.5375ZM103.186 41.311L104.878 51.1688L96.0234 46.5188L87.1687 51.1735L88.8609 41.3156L81.6984 34.3313L91.5984 32.8922L96.0234 23.925L100.448 32.8922L110.348 34.3313L103.186 41.311V41.311Z" fill="#E8B53F"/>
<path d="M86 170.002H68C67.0625 170.002 66.1094 169.206 65.1406 167.612C64.1719 166.018 63.4062 164.284 62.8438 162.409C62.2812 160.534 62 159.065 62 158.002V146.002C62 145.19 62.2969 144.487 62.8906 143.893C63.4844 143.299 64.1875 143.002 65 143.002C65.5938 143.002 66.1563 143.19 66.6875 143.565L65 125.284C64.9375 124.409 65.1719 123.651 65.7031 123.01C66.2344 122.37 66.9062 122.034 67.7188 122.002C68.5313 121.971 69.25 122.245 69.875 122.823C70.5 123.401 70.8281 124.112 70.8594 124.956L72.5 140.002C72.6562 140.346 72.8828 140.682 73.1797 141.01C73.4766 141.338 73.75 141.502 74 141.502L75.6406 124.956C75.6719 124.112 75.9922 123.401 76.6016 122.823C77.2109 122.245 77.9219 121.971 78.7344 122.002C79.5469 122.034 80.2266 122.37 80.7734 123.01C81.3203 123.651 81.5625 124.409 81.5 125.284C80.5 131.096 80 137.002 80 143.002C80 142.19 80.2891 141.487 80.8672 140.893C81.4453 140.299 82.1484 140.002 82.9766 140.002C83.8047 140.002 84.5156 140.299 85.1094 140.893C85.7031 141.487 86 142.19 86 143.002V146.002C86 145.19 86.2891 144.487 86.8672 143.893C87.4453 143.299 88.1484 143.002 88.9766 143.002C89.8047 143.002 90.5156 143.299 91.1094 143.893C91.7031 144.487 92 145.19 92 146.002V156.502C92 158.471 91.7969 160.276 91.3906 161.916C90.9844 163.557 90.4844 164.854 89.8906 165.807C89.2969 166.76 88.7031 167.573 88.1094 168.245C87.5156 168.916 87.0156 169.377 86.6094 169.627L86 170.002Z" stroke="#E8B53F" stroke-width="4" stroke-linejoin="round"/>
</svg>
