<svg width="140" height="200" viewBox="0 0 140 200" fill="none" xmlns="http://www.w3.org/2000/svg">
<rect width="140" height="200" rx="4" fill="#F4E4C2"/>
<path d="M67.6776 118C64.7988 118 62.4276 120.71 62.4276 124V147.626L61.2796 146.25L60.8421 145.812C59.8687 144.704 58.5511 144.083 57.1776 144.083C55.8041 144.083 54.4865 144.704 53.5131 145.812C52.544 146.924 52 148.43 52 150C52 151.57 52.544 153.076 53.5131 154.188V154.25L67.8421 170.438L67.9506 170.5L68.0048 170.626C70.5231 172.808 73.5948 173.992 76.7548 174H79.7648C81.6476 174.004 83.5125 173.584 85.2527 172.763C86.9928 171.941 88.5739 170.735 89.9051 169.213C91.2363 167.692 92.2915 165.885 93.01 163.896C93.7285 161.907 94.0962 159.776 94.0921 157.624V142C94.0921 138.71 91.7191 136 88.8421 136C88.0966 136 87.4071 136.234 86.7631 136.562C86.1891 133.962 84.1188 132 81.6776 132C80.3371 132 79.1068 132.6 78.1776 133.562C77.2209 132.563 75.9734 132.006 74.6776 132C74.0796 132.009 73.4875 132.136 72.9276 132.376V124C72.9276 120.71 70.5563 118 67.6776 118ZM67.6776 122C68.6488 122 69.4276 122.89 69.4276 124V146H72.9276V138C72.9276 136.89 73.7063 136 74.6776 136C75.6488 136 76.4276 136.89 76.4276 138V146H79.9276V138C79.9276 136.89 80.7063 136 81.6776 136C82.6488 136 83.4276 136.89 83.4276 138V146H87.0921V142C87.0921 140.89 87.8708 140 88.8421 140C89.8116 140 90.5921 140.89 90.5921 142V157.626C90.5921 164.554 85.8268 170 79.7631 170H76.7566C74.1928 170 71.9773 168.954 70.1381 167.374L55.9736 151.374C55.1948 150.484 55.1948 149.514 55.9736 148.624C56.7541 147.734 57.6011 147.734 58.3798 148.624L65.9276 157.25V124C65.9276 122.89 66.7063 122 67.6776 122Z" fill="#E8B53F"/>
<path d="M69.0232 23.925L64.5982 32.8922L54.6982 34.3313L61.8607 41.3157L60.1686 51.1735L69.0232 46.5188L77.8779 51.1688L76.1857 41.311L83.3482 34.3313L73.4482 32.8922L69.0232 23.925Z" fill="#FFDA76" fill-opacity="0.15"/>
<path d="M87.5906 31.5375L75.689 29.8078L70.3687 19.0219C70.2234 18.7266 69.9843 18.4875 69.689 18.3422C68.9484 17.9766 68.0484 18.2813 67.6781 19.0219L62.3578 29.8078L50.4562 31.5375C50.1281 31.5844 49.8281 31.7391 49.5984 31.9735C49.3207 32.2589 49.1677 32.6428 49.173 33.041C49.1783 33.4392 49.3414 33.8189 49.6265 34.0969L58.2375 42.4922L56.2031 54.3469C56.1554 54.6227 56.1859 54.9063 56.2912 55.1656C56.3965 55.4249 56.5723 55.6495 56.7987 55.814C57.0252 55.9784 57.2932 56.0761 57.5723 56.0961C57.8515 56.116 58.1306 56.0572 58.3781 55.9266L69.0234 50.3297L79.6687 55.9266C79.9593 56.0813 80.2968 56.1328 80.6203 56.0766C81.4359 55.936 81.9843 55.1625 81.8437 54.3469L79.8093 42.4922L88.4203 34.0969C88.6547 33.8672 88.8093 33.5672 88.8562 33.2391C88.9828 32.4188 88.4109 31.6594 87.5906 31.5375V31.5375ZM76.1859 41.311L77.8781 51.1688L69.0234 46.5188L60.1687 51.1735L61.8609 41.3156L54.6984 34.3313L64.5984 32.8922L69.0234 23.925L73.4484 32.8922L83.3484 34.3313L76.1859 41.311V41.311Z" fill="#E8B53F"/>
</svg>
