<svg width="354" height="174" viewBox="0 0 354 174" fill="none" xmlns="http://www.w3.org/2000/svg">
<path d="M1.02285 94.77C1.00454 92.68 1.39581 90.6067 2.17443 88.6671C2.94212 86.7462 4.1212 85.0168 5.62888 83.6004C7.08655 82.1418 8.80524 80.9702 10.6955 80.1461C12.6281 79.3308 14.7011 78.9006 16.7985 78.8794C18.86 78.888 20.8978 79.3191 22.7862 80.1461C24.7259 80.9418 26.4875 82.116 27.9681 83.6004C29.4399 85.0234 30.5801 86.7534 31.3074 88.6671C32.1226 90.5996 32.5529 92.6727 32.5741 94.77V157.872C32.623 162.169 30.9666 166.31 27.9681 169.388C26.4594 170.893 24.6613 172.078 22.6821 172.869C20.703 173.661 18.584 174.043 16.453 173.993C14.3203 174.057 12.1973 173.681 10.2163 172.888C8.23523 172.096 6.43852 170.904 4.93801 169.388C3.43214 167.879 2.24761 166.081 1.45597 164.102C0.664322 162.122 0.281958 160.003 0.331982 157.872L1.02285 94.77Z" fill="#7EE58E"/>
<path d="M37.1834 87.7449V145.32C37.1171 149.39 38.2374 153.391 40.4076 156.835C42.4079 160.163 45.3268 162.842 48.8136 164.55V164.55C54.6281 167.507 61.0599 169.046 67.5831 169.041H125.158C130.039 169.056 134.773 167.377 138.553 164.29C142.334 161.203 144.925 156.899 145.885 152.114L158.437 89.0116C159.188 85.9868 159.188 82.8243 158.437 79.7995C157.718 76.7514 156.299 73.9126 154.291 71.5087C152.361 69.0725 149.873 67.1372 147.037 65.8665C144.243 64.4909 141.169 63.7813 138.055 63.7937H100.631V20.9578C100.601 15.389 98.3671 10.0587 94.4186 6.13175C90.47 2.20476 85.1275 0.00042647 79.5587 0.000509615C76.7667 -0.0268581 74.0769 1.04904 72.074 2.99435C70.1648 5.03007 69.0599 7.6898 68.9649 10.479V17.5032C68.9985 26.6026 66.0455 35.4618 60.5589 42.7212L45.8197 62.4119C40.3781 69.6949 37.4301 78.5385 37.4136 87.6299L37.1834 87.7449Z" fill="#7EE58E"/>
<path d="M353.673 81.7502C353.673 85.7974 352.065 89.6789 349.203 92.5407C346.341 95.4025 342.46 97.0103 338.412 97.0103C334.355 97.0234 330.454 95.4456 327.547 92.6154C324.705 89.7062 323.088 85.8169 323.03 81.7502V20.7097C323.088 16.6429 324.705 12.7536 327.547 9.84447C330.454 7.01428 334.355 5.43643 338.412 5.44954C342.46 5.44954 346.341 7.05734 349.203 9.91917C352.065 12.781 353.673 16.6624 353.673 20.7097V81.7502Z" fill="#E8B53F"/>
<path d="M312.899 83.4591V28.1564C312.882 24.3637 311.826 20.6481 309.847 17.4132C307.881 14.1754 305.047 11.5533 301.667 9.84423H301.057C295.407 7.02693 289.179 5.56394 282.867 5.57132H227.686C222.978 5.58599 218.419 7.21995 214.773 10.1987C211.127 13.1775 208.617 17.3199 207.665 21.9303L195.457 82.9708C194.848 85.9103 194.848 88.9432 195.457 91.8827C196.17 94.8396 197.548 97.5952 199.485 99.9401C201.448 102.233 203.857 104.102 206.566 105.434C209.267 106.742 212.233 107.41 215.234 107.387H251.858V148.162C251.841 150.841 252.361 153.497 253.388 155.971C254.416 158.446 255.93 160.689 257.84 162.568C259.71 164.489 261.952 166.01 264.428 167.039C266.905 168.067 269.564 168.581 272.246 168.55C273.581 168.566 274.906 168.315 276.143 167.812C277.379 167.308 278.503 166.562 279.447 165.618C280.391 164.674 281.137 163.551 281.64 162.314C282.144 161.077 282.395 159.752 282.378 158.417V151.58C282.439 142.779 285.304 134.226 290.558 127.164L304.841 108.242C310.095 101.18 312.96 92.6268 313.021 83.8253L312.899 83.4591Z" fill="#E8B53F"/>
</svg>
