<svg width="140" height="200" viewBox="0 0 140 200" fill="none" xmlns="http://www.w3.org/2000/svg">
<rect width="140" height="200" rx="4" fill="#F4E4C2"/>
<path d="M24.0232 23.925L19.5982 32.8922L9.69824 34.3313L16.8607 41.3157L15.1686 51.1735L24.0232 46.5188L32.8779 51.1688L31.1857 41.311L38.3482 34.3313L28.4482 32.8922L24.0232 23.925Z" fill="#FFDA76" fill-opacity="0.15"/>
<path d="M42.5906 31.5375L30.689 29.8078L25.3687 19.0219C25.2234 18.7266 24.9843 18.4875 24.689 18.3422C23.9484 17.9766 23.0484 18.2813 22.6781 19.0219L17.3578 29.8078L5.45622 31.5375C5.12809 31.5844 4.82809 31.7391 4.5984 31.9735C4.32072 32.2589 4.16771 32.6428 4.17298 33.041C4.17826 33.4392 4.34139 33.8189 4.62653 34.0969L13.2375 42.4922L11.2031 54.3469C11.1554 54.6227 11.1859 54.9063 11.2912 55.1656C11.3965 55.4249 11.5723 55.6495 11.7987 55.814C12.0252 55.9784 12.2932 56.0761 12.5723 56.0961C12.8515 56.116 13.1306 56.0572 13.3781 55.9266L24.0234 50.3297L34.6687 55.9266C34.9593 56.0813 35.2968 56.1328 35.6203 56.0766C36.4359 55.936 36.9843 55.1625 36.8437 54.3469L34.8093 42.4922L43.4203 34.0969C43.6547 33.8672 43.8093 33.5672 43.8562 33.2391C43.9828 32.4188 43.4109 31.6594 42.5906 31.5375V31.5375ZM31.1859 41.311L32.8781 51.1688L24.0234 46.5188L15.1687 51.1735L16.8609 41.3156L9.6984 34.3313L19.5984 32.8922L24.0234 23.925L28.4484 32.8922L38.3484 34.3313L31.1859 41.311V41.311Z" fill="#E8B53F"/>
<path d="M69.0232 23.925L64.5982 32.8922L54.6982 34.3313L61.8607 41.3157L60.1686 51.1735L69.0232 46.5188L77.8779 51.1688L76.1857 41.311L83.3482 34.3313L73.4482 32.8922L69.0232 23.925Z" fill="#FFDA76" fill-opacity="0.15"/>
<path d="M87.5906 31.5375L75.689 29.8078L70.3687 19.0219C70.2234 18.7266 69.9843 18.4875 69.689 18.3422C68.9484 17.9766 68.0484 18.2813 67.6781 19.0219L62.3578 29.8078L50.4562 31.5375C50.1281 31.5844 49.8281 31.7391 49.5984 31.9735C49.3207 32.2589 49.1677 32.6428 49.173 33.041C49.1783 33.4392 49.3414 33.8189 49.6265 34.0969L58.2375 42.4922L56.2031 54.3469C56.1554 54.6227 56.1859 54.9063 56.2912 55.1656C56.3965 55.4249 56.5723 55.6495 56.7987 55.814C57.0252 55.9784 57.2932 56.0761 57.5723 56.0961C57.8515 56.116 58.1306 56.0572 58.3781 55.9266L69.0234 50.3297L79.6687 55.9266C79.9593 56.0813 80.2968 56.1328 80.6203 56.0766C81.4359 55.936 81.9843 55.1625 81.8437 54.3469L79.8093 42.4922L88.4203 34.0969C88.6547 33.8672 88.8093 33.5672 88.8562 33.2391C88.9828 32.4188 88.4109 31.6594 87.5906 31.5375V31.5375ZM76.1859 41.311L77.8781 51.1688L69.0234 46.5188L60.1687 51.1735L61.8609 41.3156L54.6984 34.3313L64.5984 32.8922L69.0234 23.925L73.4484 32.8922L83.3484 34.3313L76.1859 41.311V41.311Z" fill="#E8B53F"/>
<path d="M115.023 23.925L110.598 32.8922L100.698 34.3313L107.861 41.3157L106.169 51.1735L115.023 46.5188L123.878 51.1688L122.186 41.311L129.348 34.3313L119.448 32.8922L115.023 23.925Z" fill="#FFDA76" fill-opacity="0.15"/>
<path d="M133.591 31.5375L121.689 29.8078L116.369 19.0219C116.223 18.7266 115.984 18.4875 115.689 18.3422C114.948 17.9766 114.048 18.2813 113.678 19.0219L108.358 29.8078L96.4562 31.5375C96.1281 31.5844 95.8281 31.7391 95.5984 31.9735C95.3207 32.2589 95.1677 32.6428 95.173 33.041C95.1783 33.4392 95.3414 33.8189 95.6265 34.0969L104.237 42.4922L102.203 54.3469C102.155 54.6227 102.186 54.9063 102.291 55.1656C102.396 55.4249 102.572 55.6495 102.799 55.814C103.025 55.9784 103.293 56.0761 103.572 56.0961C103.851 56.116 104.131 56.0572 104.378 55.9266L115.023 50.3297L125.669 55.9266C125.959 56.0813 126.297 56.1328 126.62 56.0766C127.436 55.936 127.984 55.1625 127.844 54.3469L125.809 42.4922L134.42 34.0969C134.655 33.8672 134.809 33.5672 134.856 33.2391C134.983 32.4188 134.411 31.6594 133.591 31.5375V31.5375ZM122.186 41.311L123.878 51.1688L115.023 46.5188L106.169 51.1735L107.861 41.3156L100.698 34.3313L110.598 32.8922L115.023 23.925L119.448 32.8922L129.348 34.3313L122.186 41.311V41.311Z" fill="#E8B53F"/>
<path d="M48.0232 66.925L43.5982 75.8922L33.6982 77.3313L40.8607 84.3157L39.1686 94.1735L48.0232 89.5188L56.8779 94.1688L55.1857 84.311L62.3482 77.3313L52.4482 75.8922L48.0232 66.925Z" fill="#FFDA76" fill-opacity="0.15"/>
<path d="M66.5906 74.5375L54.689 72.8078L49.3687 62.0219C49.2234 61.7266 48.9843 61.4875 48.689 61.3422C47.9484 60.9766 47.0484 61.2813 46.6781 62.0219L41.3578 72.8078L29.4562 74.5375C29.1281 74.5844 28.8281 74.7391 28.5984 74.9735C28.3207 75.2589 28.1677 75.6428 28.173 76.041C28.1783 76.4392 28.3414 76.8189 28.6265 77.0969L37.2375 85.4922L35.2031 97.3469C35.1554 97.6227 35.1859 97.9063 35.2912 98.1656C35.3965 98.4249 35.5723 98.6495 35.7987 98.814C36.0252 98.9784 36.2932 99.0761 36.5723 99.0961C36.8515 99.116 37.1306 99.0572 37.3781 98.9266L48.0234 93.3297L58.6687 98.9266C58.9593 99.0813 59.2968 99.1328 59.6203 99.0766C60.4359 98.936 60.9843 98.1625 60.8437 97.3469L58.8093 85.4922L67.4203 77.0969C67.6547 76.8672 67.8093 76.5672 67.8562 76.2391C67.9828 75.4188 67.4109 74.6594 66.5906 74.5375V74.5375ZM55.1859 84.311L56.8781 94.1688L48.0234 89.5188L39.1687 94.1735L40.8609 84.3156L33.6984 77.3313L43.5984 75.8922L48.0234 66.925L52.4484 75.8922L62.3484 77.3313L55.1859 84.311V84.311Z" fill="#E8B53F"/>
<path d="M62.1592 148.4V128C62.1592 127.045 62.539 126.129 63.2151 125.454C63.8912 124.779 64.8082 124.4 65.7643 124.4C66.7204 124.4 67.6374 124.779 68.3135 125.454C68.9896 126.129 69.3694 127.045 69.3694 128V146" stroke="#E8B53F" stroke-width="4" stroke-linecap="round" stroke-linejoin="round"/>
<path d="M83.7898 135.2C83.7898 134.245 84.1696 133.33 84.8457 132.655C85.5218 131.979 86.4387 131.6 87.3949 131.6C88.351 131.6 89.268 131.979 89.9441 132.655C90.6202 133.33 91 134.245 91 135.2V155.6C91 159.419 89.4807 163.082 86.7763 165.782C84.072 168.483 80.4041 170 76.5795 170H71.7727H72.2726C69.8844 170.001 67.5335 169.409 65.431 168.278C63.3285 167.147 61.5402 165.512 60.2267 163.52C60.0691 163.281 59.912 163.041 59.7556 162.8C59.0058 161.65 60.9791 160.469 56.4631 152.453C56.0028 151.636 55.8798 150.672 56.1204 149.765C56.3609 148.859 56.9461 148.082 57.7514 147.6C58.6091 147.086 59.6142 146.873 60.607 146.995C61.5998 147.117 61.5234 146.566 62.2311 147.272L62.159 148.4" stroke="#E8B53F" stroke-width="4" stroke-linecap="round" stroke-linejoin="round"/>
<path d="M69.3691 130.4V125.6C69.3691 125.127 69.4624 124.659 69.6436 124.222C69.8247 123.786 70.0903 123.389 70.4251 123.054C70.7598 122.72 71.1572 122.455 71.5946 122.274C72.032 122.093 72.5008 122 72.9743 122C73.4477 122 73.9165 122.093 74.3539 122.274C74.7913 122.455 75.1887 122.72 75.5235 123.054C75.8582 123.389 76.1238 123.786 76.305 124.222C76.4861 124.659 76.5794 125.127 76.5794 125.6V146" stroke="#E8B53F" stroke-width="4" stroke-linecap="round" stroke-linejoin="round"/>
<path d="M76.5796 130.4C76.5796 129.445 76.9594 128.53 77.6355 127.854C78.3116 127.179 79.2286 126.8 80.1847 126.8C81.1408 126.8 82.0578 127.179 82.7339 127.854C83.41 128.53 83.7898 129.445 83.7898 130.4V146" stroke="#E8B53F" stroke-width="4" stroke-linecap="round" stroke-linejoin="round"/>
</svg>
