<svg width="140" height="200" viewBox="0 0 140 200" fill="none" xmlns="http://www.w3.org/2000/svg">
<rect width="140" height="200" rx="4" fill="#F4E4C2"/>
<path d="M24.0232 23.925L19.5982 32.8922L9.69824 34.3313L16.8607 41.3157L15.1686 51.1735L24.0232 46.5188L32.8779 51.1688L31.1857 41.311L38.3482 34.3313L28.4482 32.8922L24.0232 23.925Z" fill="#FFDA76" fill-opacity="0.15"/>
<path d="M42.5906 31.5375L30.689 29.8078L25.3687 19.0219C25.2234 18.7266 24.9843 18.4875 24.689 18.3422C23.9484 17.9766 23.0484 18.2813 22.6781 19.0219L17.3578 29.8078L5.45622 31.5375C5.12809 31.5844 4.82809 31.7391 4.5984 31.9735C4.32072 32.2589 4.16771 32.6428 4.17298 33.041C4.17826 33.4392 4.34139 33.8189 4.62653 34.0969L13.2375 42.4922L11.2031 54.3469C11.1554 54.6227 11.1859 54.9063 11.2912 55.1656C11.3965 55.4249 11.5723 55.6495 11.7987 55.814C12.0252 55.9784 12.2932 56.0761 12.5723 56.0961C12.8515 56.116 13.1306 56.0572 13.3781 55.9266L24.0234 50.3297L34.6687 55.9266C34.9593 56.0813 35.2968 56.1328 35.6203 56.0766C36.4359 55.936 36.9843 55.1625 36.8437 54.3469L34.8093 42.4922L43.4203 34.0969C43.6547 33.8672 43.8093 33.5672 43.8562 33.2391C43.9828 32.4188 43.4109 31.6594 42.5906 31.5375V31.5375ZM31.1859 41.311L32.8781 51.1688L24.0234 46.5188L15.1687 51.1735L16.8609 41.3156L9.6984 34.3313L19.5984 32.8922L24.0234 23.925L28.4484 32.8922L38.3484 34.3313L31.1859 41.311V41.311Z" fill="#E8B53F"/>
<path d="M69.0232 23.925L64.5982 32.8922L54.6982 34.3313L61.8607 41.3157L60.1686 51.1735L69.0232 46.5188L77.8779 51.1688L76.1857 41.311L83.3482 34.3313L73.4482 32.8922L69.0232 23.925Z" fill="#FFDA76" fill-opacity="0.15"/>
<path d="M87.5906 31.5375L75.689 29.8078L70.3687 19.0219C70.2234 18.7266 69.9843 18.4875 69.689 18.3422C68.9484 17.9766 68.0484 18.2813 67.6781 19.0219L62.3578 29.8078L50.4562 31.5375C50.1281 31.5844 49.8281 31.7391 49.5984 31.9735C49.3207 32.2589 49.1677 32.6428 49.173 33.041C49.1783 33.4392 49.3414 33.8189 49.6265 34.0969L58.2375 42.4922L56.2031 54.3469C56.1554 54.6227 56.1859 54.9063 56.2912 55.1656C56.3965 55.4249 56.5723 55.6495 56.7987 55.814C57.0252 55.9784 57.2932 56.0761 57.5723 56.0961C57.8515 56.116 58.1306 56.0572 58.3781 55.9266L69.0234 50.3297L79.6687 55.9266C79.9593 56.0813 80.2968 56.1328 80.6203 56.0766C81.4359 55.936 81.9843 55.1625 81.8437 54.3469L79.8093 42.4922L88.4203 34.0969C88.6547 33.8672 88.8093 33.5672 88.8562 33.2391C88.9828 32.4188 88.4109 31.6594 87.5906 31.5375V31.5375ZM76.1859 41.311L77.8781 51.1688L69.0234 46.5188L60.1687 51.1735L61.8609 41.3156L54.6984 34.3313L64.5984 32.8922L69.0234 23.925L73.4484 32.8922L83.3484 34.3313L76.1859 41.311V41.311Z" fill="#E8B53F"/>
<path d="M115.023 23.925L110.598 32.8922L100.698 34.3313L107.861 41.3157L106.169 51.1735L115.023 46.5188L123.878 51.1688L122.186 41.311L129.348 34.3313L119.448 32.8922L115.023 23.925Z" fill="#FFDA76" fill-opacity="0.15"/>
<path d="M133.591 31.5375L121.689 29.8078L116.369 19.0219C116.223 18.7266 115.984 18.4875 115.689 18.3422C114.948 17.9766 114.048 18.2813 113.678 19.0219L108.358 29.8078L96.4562 31.5375C96.1281 31.5844 95.8281 31.7391 95.5984 31.9735C95.3207 32.2589 95.1677 32.6428 95.173 33.041C95.1783 33.4392 95.3414 33.8189 95.6265 34.0969L104.237 42.4922L102.203 54.3469C102.155 54.6227 102.186 54.9063 102.291 55.1656C102.396 55.4249 102.572 55.6495 102.799 55.814C103.025 55.9784 103.293 56.0761 103.572 56.0961C103.851 56.116 104.131 56.0572 104.378 55.9266L115.023 50.3297L125.669 55.9266C125.959 56.0813 126.297 56.1328 126.62 56.0766C127.436 55.936 127.984 55.1625 127.844 54.3469L125.809 42.4922L134.42 34.0969C134.655 33.8672 134.809 33.5672 134.856 33.2391C134.983 32.4188 134.411 31.6594 133.591 31.5375V31.5375ZM122.186 41.311L123.878 51.1688L115.023 46.5188L106.169 51.1735L107.861 41.3156L100.698 34.3313L110.598 32.8922L115.023 23.925L119.448 32.8922L129.348 34.3313L122.186 41.311V41.311Z" fill="#E8B53F"/>
<path d="M63.1489 148.4V128C63.1489 127.045 63.5282 126.129 64.2033 125.454C64.8785 124.779 65.7941 124.4 66.7489 124.4C67.7037 124.4 68.6194 124.779 69.2945 125.454C69.9696 126.129 70.3489 127.045 70.3489 128V146" stroke="#E8B53F" stroke-width="4" stroke-linecap="round" stroke-linejoin="round"/>
<path d="M84.7907 148.1C84.7907 147.225 85.1705 146.385 85.8465 145.767C86.5225 145.148 87.4393 144.8 88.3954 144.8C89.3514 144.8 90.2682 145.148 90.9442 145.767C91.6202 146.385 92 147.225 92 148.1V156.8C92 160.301 90.4809 163.658 87.7769 166.134C85.0729 168.609 81.4054 170 77.5814 170H72.7752H73.275C70.8872 170 68.5366 169.458 66.4343 168.421C64.3321 167.384 62.544 165.886 61.2307 164.06C61.0731 163.84 60.9161 163.62 60.7597 163.4C60.0099 162.346 60.9785 161.746 56.4631 154.398C56.0028 153.649 55.8798 152.766 56.1204 151.935C56.3609 151.104 56.946 150.392 57.7511 149.95C58.6088 149.479 59.6137 149.284 60.6064 149.395C61.5991 149.507 62.5226 149.919 63.2302 150.566L66.7628 153.8" stroke="#E8B53F" stroke-width="4" stroke-linecap="round" stroke-linejoin="round"/>
<path d="M70.3486 130.4V125.6C70.3486 125.127 70.4417 124.659 70.6227 124.222C70.8036 123.786 71.0688 123.389 71.403 123.054C71.7373 122.72 72.1342 122.455 72.571 122.274C73.0077 122.093 73.4759 122 73.9486 122C74.4214 122 74.8895 122.093 75.3263 122.274C75.7631 122.455 76.1599 122.72 76.4942 123.054C76.8285 123.389 77.0937 123.786 77.2746 124.222C77.4555 124.659 77.5486 125.127 77.5486 125.6V146" stroke="#E8B53F" stroke-width="4" stroke-linecap="round" stroke-linejoin="round"/>
<path d="M77.5488 130.4C77.5488 129.445 77.9281 128.53 78.6032 127.854C79.2784 127.179 80.194 126.8 81.1488 126.8C82.1036 126.8 83.0193 127.179 83.6944 127.854C84.3695 128.53 84.7488 129.445 84.7488 130.4V146" stroke="#E8B53F" stroke-width="4" stroke-linecap="round" stroke-linejoin="round"/>
</svg>
