<svg width="140" height="200" viewBox="0 0 140 200" fill="none" xmlns="http://www.w3.org/2000/svg">
<rect width="140" height="200" rx="4" fill="#F4E4C2"/>
<path d="M24.0232 23.925L19.5982 32.8922L9.69824 34.3313L16.8607 41.3157L15.1686 51.1735L24.0232 46.5188L32.8779 51.1688L31.1857 41.311L38.3482 34.3313L28.4482 32.8922L24.0232 23.925Z" fill="#FFDA76" fill-opacity="0.15"/>
<path d="M42.5906 31.5375L30.689 29.8078L25.3687 19.0219C25.2234 18.7266 24.9843 18.4875 24.689 18.3422C23.9484 17.9766 23.0484 18.2813 22.6781 19.0219L17.3578 29.8078L5.45622 31.5375C5.12809 31.5844 4.82809 31.7391 4.5984 31.9735C4.32072 32.2589 4.16771 32.6428 4.17298 33.041C4.17826 33.4392 4.34139 33.8189 4.62653 34.0969L13.2375 42.4922L11.2031 54.3469C11.1554 54.6227 11.1859 54.9063 11.2912 55.1656C11.3965 55.4249 11.5723 55.6495 11.7987 55.814C12.0252 55.9784 12.2932 56.0761 12.5723 56.0961C12.8515 56.116 13.1306 56.0572 13.3781 55.9266L24.0234 50.3297L34.6687 55.9266C34.9593 56.0813 35.2968 56.1328 35.6203 56.0766C36.4359 55.936 36.9843 55.1625 36.8437 54.3469L34.8093 42.4922L43.4203 34.0969C43.6547 33.8672 43.8093 33.5672 43.8562 33.2391C43.9828 32.4188 43.4109 31.6594 42.5906 31.5375V31.5375ZM31.1859 41.311L32.8781 51.1688L24.0234 46.5188L15.1687 51.1735L16.8609 41.3156L9.6984 34.3313L19.5984 32.8922L24.0234 23.925L28.4484 32.8922L38.3484 34.3313L31.1859 41.311V41.311Z" fill="#E8B53F"/>
<path d="M69.0232 23.925L64.5982 32.8922L54.6982 34.3313L61.8607 41.3157L60.1686 51.1735L69.0232 46.5188L77.8779 51.1688L76.1857 41.311L83.3482 34.3313L73.4482 32.8922L69.0232 23.925Z" fill="#FFDA76" fill-opacity="0.15"/>
<path d="M87.5906 31.5375L75.689 29.8078L70.3687 19.0219C70.2234 18.7266 69.9843 18.4875 69.689 18.3422C68.9484 17.9766 68.0484 18.2813 67.6781 19.0219L62.3578 29.8078L50.4562 31.5375C50.1281 31.5844 49.8281 31.7391 49.5984 31.9735C49.3207 32.2589 49.1677 32.6428 49.173 33.041C49.1783 33.4392 49.3414 33.8189 49.6265 34.0969L58.2375 42.4922L56.2031 54.3469C56.1554 54.6227 56.1859 54.9063 56.2912 55.1656C56.3965 55.4249 56.5723 55.6495 56.7987 55.814C57.0252 55.9784 57.2932 56.0761 57.5723 56.0961C57.8515 56.116 58.1306 56.0572 58.3781 55.9266L69.0234 50.3297L79.6687 55.9266C79.9593 56.0813 80.2968 56.1328 80.6203 56.0766C81.4359 55.936 81.9843 55.1625 81.8437 54.3469L79.8093 42.4922L88.4203 34.0969C88.6547 33.8672 88.8093 33.5672 88.8562 33.2391C88.9828 32.4188 88.4109 31.6594 87.5906 31.5375V31.5375ZM76.1859 41.311L77.8781 51.1688L69.0234 46.5188L60.1687 51.1735L61.8609 41.3156L54.6984 34.3313L64.5984 32.8922L69.0234 23.925L73.4484 32.8922L83.3484 34.3313L76.1859 41.311V41.311Z" fill="#E8B53F"/>
<path d="M115.023 23.925L110.598 32.8922L100.698 34.3313L107.861 41.3157L106.169 51.1735L115.023 46.5188L123.878 51.1688L122.186 41.311L129.348 34.3313L119.448 32.8922L115.023 23.925Z" fill="#FFDA76" fill-opacity="0.15"/>
<path d="M133.591 31.5375L121.689 29.8078L116.369 19.0219C116.223 18.7266 115.984 18.4875 115.689 18.3422C114.948 17.9766 114.048 18.2813 113.678 19.0219L108.358 29.8078L96.4562 31.5375C96.1281 31.5844 95.8281 31.7391 95.5984 31.9735C95.3207 32.2589 95.1677 32.6428 95.173 33.041C95.1783 33.4392 95.3414 33.8189 95.6265 34.0969L104.237 42.4922L102.203 54.3469C102.155 54.6227 102.186 54.9063 102.291 55.1656C102.396 55.4249 102.572 55.6495 102.799 55.814C103.025 55.9784 103.293 56.0761 103.572 56.0961C103.851 56.116 104.131 56.0572 104.378 55.9266L115.023 50.3297L125.669 55.9266C125.959 56.0813 126.297 56.1328 126.62 56.0766C127.436 55.936 127.984 55.1625 127.844 54.3469L125.809 42.4922L134.42 34.0969C134.655 33.8672 134.809 33.5672 134.856 33.2391C134.983 32.4188 134.411 31.6594 133.591 31.5375V31.5375ZM122.186 41.311L123.878 51.1688L115.023 46.5188L106.169 51.1735L107.861 41.3156L100.698 34.3313L110.598 32.8922L115.023 23.925L119.448 32.8922L129.348 34.3313L122.186 41.311V41.311Z" fill="#E8B53F"/>
<path d="M45.0232 66.925L40.5982 75.8922L30.6982 77.3313L37.8607 84.3157L36.1686 94.1735L45.0232 89.5188L53.8779 94.1688L52.1857 84.311L59.3482 77.3313L49.4482 75.8922L45.0232 66.925Z" fill="#FFDA76" fill-opacity="0.15"/>
<path d="M63.5906 74.5375L51.689 72.8078L46.3687 62.0219C46.2234 61.7266 45.9843 61.4875 45.689 61.3422C44.9484 60.9766 44.0484 61.2813 43.6781 62.0219L38.3578 72.8078L26.4562 74.5375C26.1281 74.5844 25.8281 74.7391 25.5984 74.9735C25.3207 75.2589 25.1677 75.6428 25.173 76.041C25.1783 76.4392 25.3414 76.8189 25.6265 77.0969L34.2375 85.4922L32.2031 97.3469C32.1554 97.6227 32.1859 97.9063 32.2912 98.1656C32.3965 98.4249 32.5723 98.6495 32.7987 98.814C33.0252 98.9784 33.2932 99.0761 33.5723 99.0961C33.8515 99.116 34.1306 99.0572 34.3781 98.9266L45.0234 93.3297L55.6687 98.9266C55.9593 99.0813 56.2968 99.1328 56.6203 99.0766C57.4359 98.936 57.9843 98.1625 57.8437 97.3469L55.8093 85.4922L64.4203 77.0969C64.6547 76.8672 64.8093 76.5672 64.8562 76.2391C64.9828 75.4188 64.4109 74.6594 63.5906 74.5375V74.5375ZM52.1859 84.311L53.8781 94.1688L45.0234 89.5188L36.1687 94.1735L37.8609 84.3156L30.6984 77.3313L40.5984 75.8922L45.0234 66.925L49.4484 75.8922L59.3484 77.3313L52.1859 84.311V84.311Z" fill="#E8B53F"/>
<path d="M91.0232 66.925L86.5982 75.8922L76.6982 77.3313L83.8607 84.3157L82.1686 94.1735L91.0232 89.5188L99.8779 94.1688L98.1857 84.311L105.348 77.3313L95.4482 75.8922L91.0232 66.925Z" fill="#FFDA76" fill-opacity="0.15"/>
<path d="M109.591 74.5375L97.689 72.8078L92.3687 62.0219C92.2234 61.7266 91.9843 61.4875 91.689 61.3422C90.9484 60.9766 90.0484 61.2813 89.6781 62.0219L84.3578 72.8078L72.4562 74.5375C72.1281 74.5844 71.8281 74.7391 71.5984 74.9735C71.3207 75.2589 71.1677 75.6428 71.173 76.041C71.1783 76.4392 71.3414 76.8189 71.6265 77.0969L80.2375 85.4922L78.2031 97.3469C78.1554 97.6227 78.1859 97.9063 78.2912 98.1656C78.3965 98.4249 78.5723 98.6495 78.7987 98.814C79.0252 98.9784 79.2932 99.0761 79.5723 99.0961C79.8515 99.116 80.1306 99.0572 80.3781 98.9266L91.0234 93.3297L101.669 98.9266C101.959 99.0813 102.297 99.1328 102.62 99.0766C103.436 98.936 103.984 98.1625 103.844 97.3469L101.809 85.4922L110.42 77.0969C110.655 76.8672 110.809 76.5672 110.856 76.2391C110.983 75.4188 110.411 74.6594 109.591 74.5375V74.5375ZM98.1859 84.311L99.8781 94.1688L91.0234 89.5188L82.1687 94.1735L83.8609 84.3156L76.6984 77.3313L86.5984 75.8922L91.0234 66.925L95.4484 75.8922L105.348 77.3313L98.1859 84.311V84.311Z" fill="#E8B53F"/>
<path d="M66.6738 148.4V128C66.6738 127.045 66.9942 126.129 67.5644 125.454C68.1347 124.779 68.9081 124.4 69.7146 124.4C70.5211 124.4 71.2945 124.779 71.8647 125.454C72.435 126.129 72.7554 127.045 72.7554 128V146" stroke="#E8B53F" stroke-width="4" stroke-linecap="round" stroke-linejoin="round"/>
<path d="M84.9185 137.6C84.9185 136.645 85.2388 135.73 85.8091 135.054C86.3793 134.379 87.1528 134 87.9592 134C88.7657 134 89.5391 134.379 90.1094 135.054C90.6796 135.73 91 136.645 91 137.6V155.6C91 159.419 89.7185 163.082 87.4375 165.782C85.1565 168.483 82.0628 170 78.8369 170H74.7826H75.2042C73.1899 170 71.207 169.409 69.4337 168.277C67.6603 167.146 66.1519 165.512 65.044 163.52C64.9111 163.28 64.7786 163.04 64.6467 162.8C64.0142 161.65 59.1997 155.797 55.3906 147.781C55.0023 146.964 54.8986 145.999 55.1015 145.093C55.3044 144.187 55.798 143.41 56.4772 142.928C57.2007 142.414 58.0484 142.201 58.8858 142.323C59.7232 142.445 60.5022 142.894 61.0992 143.6L66.6739 149" stroke="#E8B53F" stroke-width="4" stroke-linecap="round" stroke-linejoin="round"/>
<path d="M72.7554 130.4V125.6C72.7554 125.127 72.834 124.659 72.9868 124.222C73.1396 123.786 73.3636 123.389 73.646 123.054C73.9284 122.72 74.2636 122.455 74.6325 122.274C75.0014 122.093 75.3968 122 75.7961 122C76.1955 122 76.5909 122.093 76.9598 122.274C77.3287 122.455 77.6639 122.72 77.9463 123.054C78.2286 123.389 78.4526 123.786 78.6054 124.222C78.7582 124.659 78.8369 125.127 78.8369 125.6V146" stroke="#E8B53F" stroke-width="4" stroke-linecap="round" stroke-linejoin="round"/>
<path d="M78.8369 130.4C78.8369 129.445 79.1573 128.53 79.7275 127.854C80.2978 127.179 81.0712 126.8 81.8777 126.8C82.6841 126.8 83.4576 127.179 84.0278 127.854C84.5981 128.53 84.9184 129.445 84.9184 130.4V146" stroke="#E8B53F" stroke-width="4" stroke-linecap="round" stroke-linejoin="round"/>
</svg>
